<svg width="31" height="26" viewBox="0 0 31 26" fill="none" xmlns="http://www.w3.org/2000/svg">
<path d="M30.7539 3.75016C29.631 4.26058 28.4206 4.596 27.1664 4.75641C28.4498 3.9835 29.4414 2.7585 29.9081 1.28558C28.6977 2.01475 27.356 2.52516 25.9414 2.81683C24.7894 1.56266 23.1706 0.833496 21.3331 0.833496C17.906 0.833496 15.106 3.6335 15.106 7.08975C15.106 7.58558 15.1644 8.06683 15.2664 8.51891C10.0748 8.25641 5.45186 5.76266 2.37477 1.98558C1.83519 2.90433 1.52894 3.9835 1.52894 5.121C1.52894 7.29391 2.62269 9.21891 4.31436 10.3127C3.27894 10.3127 2.31644 10.021 1.47061 9.5835V9.62724C1.47061 12.6606 3.62894 15.1981 6.48727 15.7668C5.56958 16.018 4.60616 16.0529 3.67269 15.8689C4.06878 17.1121 4.84451 18.1999 5.89084 18.9794C6.93716 19.7589 8.20147 20.191 9.50602 20.2147C7.29465 21.9654 4.55352 22.9117 1.73311 22.8981C1.23727 22.8981 0.741439 22.8689 0.245605 22.8106C3.01644 24.5897 6.31227 25.6252 9.84144 25.6252C21.3331 25.6252 27.6477 16.0877 27.6477 7.81891C27.6477 7.54183 27.6477 7.27933 27.6331 7.00224C28.8581 6.12724 29.9081 5.01891 30.7539 3.75016Z" fill="white" fill-opacity="0.7"/>
</svg>
